<svg width="100" height="100" viewBox="0 0 100 100" fill="none" xmlns="http://www.w3.org/2000/svg">
<rect width="100" height="100" fill="#FFB6C1" rx="50"/>
<circle cx="50" cy="35" r="18" fill="#FFFFFF"/>
<path d="M25 75L75 75L70 95L30 95L25 75Z" fill="#FF1493"/>
<circle cx="42" cy="32" r="4" fill="#8B4513"/>
<circle cx="58" cy="32" r="4" fill="#8B4513"/>
<circle cx="43" cy="30" r="1.5" fill="#000"/>
<circle cx="57" cy="30" r="1.5" fill="#000"/>
<path d="M45 42Q50 47 55 42" stroke="#8B4513" stroke-width="2" fill="none"/>
<path d="M35 25L30 20L25 25" stroke="#8B4513" stroke-width="2" fill="none"/>
<path d="M65 25L70 20L75 25" stroke="#8B4513" stroke-width="2" fill="none"/>
<path d="M30 50Q35 45 40 50" stroke="#FF1493" stroke-width="2" fill="none"/>
<path d="M60 50Q65 45 70 50" stroke="#FF1493" stroke-width="2" fill="none"/>
</svg>
